<?xml version="1.0" encoding="utf-8"?>
<!-- Generator: Adobe Illustrator 23.0.1, SVG Export Plug-In . SVG Version: 6.00 Build 0)  -->
<svg version="1.1" id="Layer_1" xmlns="http://www.w3.org/2000/svg" xmlns:xlink="http://www.w3.org/1999/xlink" x="0px" y="0px"
	 viewBox="0 0 507 70" style="enable-background:new 0 0 507 70;" xml:space="preserve">
<style type="text/css">
	.st0{fill:#F58124;}
</style>
<g>
	<path class="st0" d="M29.4,36.4c-9-5.7-11.1-15.8-5.1-24.2c6.3-9,21.2-12.5,30.8-7.5c1.2,0.6,3,0.9,2.4,3.6
		c-0.3,0.9,1.5,2.7,2.7,3.6c10.8,5.7,12.3,15.2,11.1,25.7c-0.6,4.8-2.1,9.6-3.6,14c0-4.5,0.6-8.7,0-13.1c-2.1-11-13.7-19.1-24.5-17
		c-6.6,1.2-10.5,5.4-12.6,11.3C30,34,29.7,35.2,29.4,36.4z"/>
	<path class="st0" d="M6.4,53.2c14.9,10.2,26,10.5,34.7,0.6c6.9-8.1,6-15.8-3-25.7C50.3,22.4,62,29,63.5,42.4c0.9,9-1.2,17-8.7,22.7
		c-1.8,1.5-3.9,3.6-6.6,0.9c-0.6-0.6-2.4,0.6-3.6,0.9C31.2,73.5,12.1,66.6,6.4,53.2z"/>
	<path class="st0" d="M35.4,0C28.8,2.1,24,5.1,20.4,9.9c-5.7,7.8-5.4,19.4,0.6,26.9c3.6,4.2,8.1,5.7,13.2,4.8
		c2.4-0.3,4.8-0.9,8.1-1.8c-2.1,4.2-3.3,8.1-5.7,11.3c-4.2,5.7-10.5,6.9-17,5.4C9.4,54.1,1.3,44.2,1,34c0-2.1-0.3-4.2,2.7-4.5
		c0.6,0,1.2-1.5,1.2-2.4C4,10.8,17.1,0.9,35.4,0z"/>
</g>
<path class="st0" d="M123.2,37c-0.3-5.1-0.6-11.3-0.6-16.1h-0.3c-1.2,4.5-2.7,9-4.8,14L111,52.9h-3.6l-6-17.6
	c-1.8-5.4-3.3-10.2-4.2-14.3c0,4.5-0.3,10.8-0.6,16.4l-0.9,15.8h-4.5l2.7-37h6l6.3,17.9c1.5,4.5,2.7,8.7,3.9,12.5h0.3
	c0.9-3.9,2.4-7.8,3.9-12.5l6.6-17.9h6l2.4,37h-4.8L123.2,37z"/>
<path class="st0" d="M144.5,53.2V37.6l-11.7-21.2h5.4l5.4,10.2c1.5,2.7,2.4,5.1,3.6,7.8c1.2-2.4,2.4-4.8,3.9-7.8l5.4-10.2h5.4
	l-12.6,21.2v15.8L144.5,53.2z"/>
<path class="st0" d="M165.7,16.7c2.4-0.6,6-0.9,9.3-0.9c5.1,0,8.4,0.9,10.8,3c1.8,1.8,3,4.2,3,7.2c0,4.8-3,8.1-6.9,9.6v0.3
	c3,0.9,4.5,3.6,5.4,7.5c1.2,5.1,2.1,8.7,3,10.2h-5.4c-0.6-1.2-1.5-4.2-2.4-9c-1.2-5.1-3-7.2-7.5-7.2h-4.5v16.1h-4.8V16.7z
	 M170.5,33.4h4.8c5.1,0,8.4-2.7,8.4-7.2c0-4.8-3.6-6.9-8.7-6.9c-2.1,0.3-3.9,0.3-4.5,0.6V33.4z"/>
<path class="st0" d="M200.1,16.1v37h-4.8v-37H200.1z"/>
<path class="st0" d="M240.1,34.3c0,12.8-7.8,19.4-17.3,19.4c-9.9,0-16.7-7.5-16.7-18.8c0-11.6,7.5-19.4,17.3-19.4
	C233.5,15.5,240.1,23.3,240.1,34.3z M211.4,34.9c0,8.1,4.2,14.9,12,14.9c7.5,0,12-6.9,12-15.5c0-7.5-3.9-14.9-12-14.9
	C215.3,19.4,211.4,26.9,211.4,34.9z"/>
<path class="st0" d="M251.2,16.1v37h-4.8v-37H251.2z"/>
<path class="st0" d="M258.6,49.3c2.1,1.5,5.1,2.4,8.1,2.4c5.7,0,9-3.3,9-7.8c0-4.2-2.1-6.6-7.5-8.7c-6-2.1-9.6-5.1-9.6-10.2
	c0-5.4,4.5-9.3,10.8-9.3c3.6,0,6,0.9,7.5,1.8l-0.9,2.1c-0.9-0.6-3.3-1.8-6.6-1.8c-6,0-8.1,3.9-8.1,6.9c0,4.2,2.4,6.3,7.8,8.4
	c6,2.4,9.3,5.4,9.3,10.8c0,5.4-3.9,10.2-11.7,10.2c-3.3,0-6.9-1.2-9-2.4L258.6,49.3z"/>
<path class="st0" d="M315.7,34.3c0,13.1-8.1,19.4-16.7,19.4c-9.3,0-16.1-7.2-16.1-18.8c0-12.2,7.5-19.4,16.7-19.4
	C308.8,15.5,315.7,23,315.7,34.3z M285.5,34.9c0,8.4,4.8,16.7,13.7,16.7c8.7,0,13.7-8.1,13.7-17c0-7.8-4.2-16.7-13.7-16.7
	C290,17.6,285.5,26.3,285.5,34.9z"/>
<path class="st0" d="M322.3,16.1h2.7v34.9h16.4v2.1h-19.1V16.1z"/>
<path class="st0" d="M347.4,16.1v22.4c0,9.6,4.5,13.1,9.9,13.1c6,0,10.5-3.9,10.5-13.1V16.1h2.7v22.1c0,11.3-6,15.5-13.1,15.5
	c-6.6,0-12.3-3.9-12.3-15.2V16.1H347.4z"/>
<path class="st0" d="M386.3,18.5h-12v-2.4h26.9v2.1h-12v34.9h-2.7V18.5H386.3z"/>
<path class="st0" d="M407.5,16.1v37h-2.7v-37H407.5z"/>
<path class="st0" d="M446.9,34.3c0,13.1-8.1,19.4-16.7,19.4c-9.3,0-16.1-7.2-16.1-18.8c0-12.2,7.5-19.4,16.7-19.4
	C440.1,15.5,446.9,23,446.9,34.3z M416.7,34.9c0,8.4,4.8,16.7,13.7,16.7c8.7,0,13.7-8.1,13.7-17c0-7.8-4.2-16.7-13.7-16.7
	C421.2,17.6,416.7,26.3,416.7,34.9z"/>
<path class="st0" d="M453.5,53.2v-37h2.4l14.3,21.8c3,4.8,5.1,8.1,6.9,11.6c-0.3-5.1-0.3-9.3-0.3-14.9V16.1h2.7v37h-2.4l-14.3-21.5
	c-2.7-4.2-5.4-8.1-7.2-11.9h-0.3c0.3,4.5,0.3,8.7,0.3,14.6v18.8H453.5z"/>
<path class="st0" d="M487.3,49.3c2.1,1.5,5.1,2.4,8.1,2.4c5.7,0,9-3.3,9-7.8c0-4.2-2.1-6.6-7.5-8.7c-6-2.1-9.6-5.1-9.6-10.2
	c0-5.4,4.5-9.3,10.8-9.3c3.6,0,6,0.9,7.5,1.8l-0.9,1.8c-0.9-0.6-3.3-1.8-6.6-1.8c-6,0-8.1,3.9-8.1,6.9c0,4.2,2.4,6.3,7.8,8.4
	c6,2.4,9.3,5.4,9.3,10.8s-3.9,10.2-11.7,10.2c-3.3,0-6.9-1.2-9-2.4L487.3,49.3z"/>
</svg>
