<svg width="48" height="48" viewBox="0 0 48 48" fill="none" xmlns="http://www.w3.org/2000/svg"><path d="M24 44c11.0457.0 20-8.9543 20-20C44 12.9543 35.0457 4 24 4 12.9543 4 4 12.9543 4 24s8.9543 20 20 20z" stroke="url(#paint0_linear_2051_1960)" stroke-width="3" stroke-linecap="round" stroke-linejoin="round"></path><path d="M18.18 18C18.6502 16.6633 19.5783 15.5362 20.7999 14.8182 22.0215 14.1003 23.4578 13.8379 24.8544 14.0774 26.2509 14.317 27.5176 15.043 28.4302 16.127 29.3427 17.211 29.8421 18.583 29.84 20c0 4-6 6-6 6" stroke="url(#paint1_linear_2051_1960)" stroke-width="3" stroke-linecap="round" stroke-linejoin="round"></path><path d="M24 34H24.02" stroke="url(#paint2_linear_2051_1960)" stroke-width="2" stroke-linecap="round" stroke-linejoin="round"></path><defs><linearGradient id="paint0_linear_2051_1960" x1="4.01389" y1="10.6669" x2="44.0006" y2="10.6685" gradientUnits="userSpaceOnUse"><stop stop-color="#c02d28"></stop><stop offset="1" stop-color="#684DF4"></stop></linearGradient><linearGradient id="paint1_linear_2051_1960" x1="18.1841" y1="15.9926" x2="29.8402" y2="15.9931" gradientUnits="userSpaceOnUse"><stop stop-color="#c02d28"></stop><stop offset="1" stop-color="#684DF4"></stop></linearGradient><linearGradient id="paint2_linear_2051_1960" x1="24" y1="34.1667" x2="24.02" y2="34.1667" gradientUnits="userSpaceOnUse"><stop stop-color="#c02d28"></stop><stop offset="1" stop-color="#684DF4"></stop></linearGradient></defs></svg>